<mxfile host="app.diagrams.net" modified="2023-11-02T20:21:22.880Z" agent="Mozilla/5.0 (Windows NT 10.0; Win64; x64) AppleWebKit/537.36 (KHTML, like Gecko) Chrome/118.0.0.0 Safari/537.36 Edg/118.0.2088.76" version="22.0.8" etag="uF6M4njVW6xwX483x7rC" type="github">
  <diagram name="Page-1" id="-7ETQen3bGO1rM3MlZZh">
    <mxGraphModel>
      <root>
        <mxCell id="0" />
        <mxCell id="1" parent="0" />
      </root>
    </mxGraphModel>
  </diagram>
</mxfile>
